<svg xmlns="http://www.w3.org/2000/svg" xmlns:xlink="http://www.w3.org/1999/xlink" width="2379" zoomAndPan="magnify" viewBox="0 0 1784.88 1784.99993" height="2379" preserveAspectRatio="xMidYMid meet" version="1.0"><defs><filter x="0%" y="0%" width="100%" height="100%" id="97a8291296"><feColorMatrix values="0 0 0 0 1 0 0 0 0 1 0 0 0 0 1 0 0 0 1 0" color-interpolation-filters="sRGB"/></filter><clipPath id="45edeec8ab"><path d="M 0 0.0585938 L 1784.761719 0.0585938 L 1784.761719 1784.9375 L 0 1784.9375 Z M 0 0.0585938 " clip-rule="nonzero"/></clipPath><mask id="ddc7e61a20"><g filter="url(#97a8291296)"><rect x="-178.488" width="2141.856" fill="#000000" y="-178.499993" height="2141.999916" fill-opacity="0.55"/></g></mask><clipPath id="0bea7ba28f"><path d="M 0 0.0585938 L 1784.761719 0.0585938 L 1784.761719 1784.9375 L 0 1784.9375 Z M 0 0.0585938 " clip-rule="nonzero"/></clipPath><clipPath id="66b5c54260"><rect x="0" width="1785" y="0" height="1785"/></clipPath></defs><g clip-path="url(#45edeec8ab)"><g mask="url(#ddc7e61a20)"><g transform="matrix(1, 0, 0, 1, 0, -0.000000000000097387)"><g clip-path="url(#66b5c54260)"><g clip-path="url(#0bea7ba28f)"><path fill="#d9d9d9" d="M 1784.75 892.433594 C 1784.75 907.039062 1784.394531 921.636719 1783.675781 936.222656 C 1782.960938 950.808594 1781.886719 965.371094 1780.453125 979.902344 C 1779.023438 994.4375 1777.234375 1008.925781 1775.09375 1023.375 C 1772.949219 1037.820312 1770.453125 1052.207031 1767.605469 1066.527344 C 1764.753906 1080.851562 1761.554688 1095.097656 1758.007812 1109.265625 C 1754.460938 1123.429688 1750.566406 1137.503906 1746.324219 1151.476562 C 1742.085938 1165.453125 1737.507812 1179.316406 1732.585938 1193.066406 C 1727.664062 1206.816406 1722.410156 1220.441406 1716.824219 1233.933594 C 1711.234375 1247.425781 1705.316406 1260.773438 1699.074219 1273.976562 C 1692.828125 1287.175781 1686.265625 1300.21875 1679.378906 1313.097656 C 1672.496094 1325.976562 1665.300781 1338.679688 1657.792969 1351.207031 C 1650.28125 1363.734375 1642.472656 1376.070312 1634.359375 1388.210938 C 1626.246094 1400.355469 1617.835938 1412.292969 1609.136719 1424.023438 C 1600.4375 1435.753906 1591.457031 1447.261719 1582.191406 1458.550781 C 1572.925781 1469.84375 1563.390625 1480.898438 1553.582031 1491.71875 C 1543.773438 1502.539062 1533.707031 1513.113281 1523.378906 1523.441406 C 1513.054688 1533.765625 1502.480469 1543.835938 1491.65625 1553.640625 C 1480.835938 1563.449219 1469.78125 1572.984375 1458.492188 1582.25 C 1447.203125 1591.515625 1435.691406 1600.5 1423.960938 1609.199219 C 1412.230469 1617.898438 1400.296875 1626.304688 1388.152344 1634.417969 C 1376.007812 1642.53125 1363.675781 1650.34375 1351.148438 1657.851562 C 1338.621094 1665.359375 1325.917969 1672.554688 1313.039062 1679.441406 C 1300.15625 1686.324219 1287.117188 1692.890625 1273.914062 1699.132812 C 1260.710938 1705.378906 1247.363281 1711.292969 1233.871094 1716.882812 C 1220.378906 1722.472656 1206.757812 1727.726562 1193.007812 1732.644531 C 1179.257812 1737.566406 1165.394531 1742.144531 1151.417969 1746.386719 C 1137.441406 1750.625 1123.371094 1754.519531 1109.203125 1758.066406 C 1095.039062 1761.617188 1080.792969 1764.816406 1066.46875 1767.664062 C 1052.144531 1770.511719 1037.761719 1773.007812 1023.3125 1775.152344 C 1008.867188 1777.296875 994.378906 1779.082031 979.84375 1780.515625 C 965.308594 1781.945312 950.75 1783.019531 936.164062 1783.734375 C 921.574219 1784.453125 906.980469 1784.8125 892.375 1784.8125 C 877.769531 1784.8125 863.175781 1784.453125 848.589844 1783.734375 C 834 1783.019531 819.441406 1781.945312 804.90625 1780.515625 C 790.371094 1779.082031 775.882812 1777.296875 761.4375 1775.152344 C 746.988281 1773.007812 732.605469 1770.511719 718.28125 1767.664062 C 703.957031 1764.816406 689.710938 1761.617188 675.546875 1758.066406 C 661.378906 1754.519531 647.308594 1750.625 633.332031 1746.386719 C 619.355469 1742.144531 605.492188 1737.566406 591.742188 1732.644531 C 577.992188 1727.726562 564.371094 1722.472656 550.878906 1716.882812 C 537.386719 1711.292969 524.039062 1705.378906 510.835938 1699.132812 C 497.632812 1692.890625 484.59375 1686.324219 471.710938 1679.441406 C 458.832031 1672.554688 446.128906 1665.359375 433.601562 1657.851562 C 421.074219 1650.34375 408.742188 1642.53125 396.597656 1634.417969 C 384.453125 1626.304688 372.519531 1617.898438 360.789062 1609.199219 C 349.058594 1600.5 337.546875 1591.515625 326.257812 1582.25 C 314.96875 1572.984375 303.914062 1563.449219 293.09375 1553.640625 C 282.269531 1543.835938 271.699219 1533.765625 261.371094 1523.441406 C 251.042969 1513.113281 240.976562 1502.539062 231.167969 1491.71875 C 221.359375 1480.898438 211.824219 1469.839844 202.558594 1458.550781 C 193.296875 1447.261719 184.3125 1435.753906 175.613281 1424.023438 C 166.914062 1412.292969 158.507812 1400.355469 150.390625 1388.210938 C 142.277344 1376.070312 134.46875 1363.734375 126.960938 1351.207031 C 119.453125 1338.679688 112.253906 1325.976562 105.371094 1313.097656 C 98.484375 1300.21875 91.921875 1287.175781 85.675781 1273.976562 C 79.433594 1260.773438 73.515625 1247.425781 67.929688 1233.933594 C 62.339844 1220.441406 57.085938 1206.816406 52.164062 1193.066406 C 47.246094 1179.316406 42.664062 1165.453125 38.425781 1151.476562 C 34.1875 1137.503906 30.292969 1123.429688 26.742188 1109.265625 C 23.195312 1095.097656 19.996094 1080.851562 17.148438 1066.527344 C 14.296875 1052.207031 11.800781 1037.820312 9.660156 1023.375 C 7.515625 1008.925781 5.726562 994.4375 4.296875 979.902344 C 2.867188 965.371094 1.792969 950.808594 1.074219 936.222656 C 0.359375 921.636719 0 907.039062 0 892.433594 C 0 877.832031 0.359375 863.234375 1.074219 848.648438 C 1.792969 834.0625 2.867188 819.5 4.296875 804.96875 C 5.726562 790.433594 7.515625 775.941406 9.660156 761.496094 C 11.800781 747.050781 14.296875 732.664062 17.148438 718.339844 C 19.996094 704.019531 23.195312 689.773438 26.742188 675.605469 C 30.292969 661.4375 34.1875 647.367188 38.425781 633.390625 C 42.664062 619.417969 47.246094 605.554688 52.164062 591.804688 C 57.085938 578.050781 62.339844 564.429688 67.929688 550.9375 C 73.515625 537.445312 79.433594 524.097656 85.675781 510.894531 C 91.921875 497.695312 98.484375 484.652344 105.371094 471.773438 C 112.253906 458.894531 119.453125 446.1875 126.960938 433.664062 C 134.46875 421.136719 142.277344 408.800781 150.390625 396.65625 C 158.507812 384.515625 166.914062 372.578125 175.613281 360.847656 C 184.3125 349.117188 193.296875 337.609375 202.558594 326.320312 C 211.824219 315.027344 221.359375 303.972656 231.167969 293.152344 C 240.976562 282.332031 251.042969 271.757812 261.371094 261.429688 C 271.699219 251.105469 282.269531 241.035156 293.09375 231.230469 C 303.914062 221.421875 314.96875 211.882812 326.257812 202.621094 C 337.546875 193.355469 349.058594 184.371094 360.789062 175.671875 C 372.519531 166.972656 384.453125 158.566406 396.597656 150.453125 C 408.742188 142.339844 421.074219 134.527344 433.601562 127.019531 C 446.128906 119.511719 458.832031 112.316406 471.710938 105.429688 C 484.59375 98.546875 497.632812 91.980469 510.835938 85.738281 C 524.039062 79.492188 537.386719 73.578125 550.878906 67.988281 C 564.371094 62.398438 577.992188 57.144531 591.742188 52.222656 C 605.492188 47.304688 619.355469 42.726562 633.332031 38.484375 C 647.308594 34.246094 661.378906 30.351562 675.546875 26.804688 C 689.710938 23.253906 703.957031 20.054688 718.28125 17.207031 C 732.605469 14.359375 746.992188 11.863281 761.4375 9.71875 C 775.882812 7.574219 790.375 5.789062 804.90625 4.355469 C 819.441406 2.925781 834 1.851562 848.589844 1.136719 C 863.175781 0.417969 877.769531 0.0585938 892.375 0.0585938 C 906.980469 0.0585938 921.574219 0.417969 936.164062 1.136719 C 950.75 1.851562 965.308594 2.925781 979.84375 4.355469 C 994.378906 5.789062 1008.867188 7.574219 1023.3125 9.71875 C 1037.761719 11.863281 1052.144531 14.359375 1066.46875 17.207031 C 1080.792969 20.054688 1095.039062 23.253906 1109.203125 26.804688 C 1123.371094 30.351562 1137.441406 34.246094 1151.417969 38.484375 C 1165.394531 42.726562 1179.257812 47.304688 1193.007812 52.222656 C 1206.757812 57.144531 1220.378906 62.398438 1233.871094 67.988281 C 1247.367188 73.578125 1260.710938 79.492188 1273.914062 85.738281 C 1287.117188 91.980469 1300.160156 98.546875 1313.039062 105.429688 C 1325.917969 112.316406 1338.621094 119.511719 1351.148438 127.019531 C 1363.675781 134.527344 1376.007812 142.339844 1388.152344 150.453125 C 1400.296875 158.566406 1412.230469 166.972656 1423.960938 175.671875 C 1435.691406 184.371094 1447.203125 193.355469 1458.492188 202.621094 C 1469.78125 211.882812 1480.835938 221.421875 1491.660156 231.230469 C 1502.480469 241.035156 1513.054688 251.105469 1523.378906 261.429688 C 1533.707031 271.757812 1543.773438 282.332031 1553.582031 293.152344 C 1563.390625 303.972656 1572.925781 315.027344 1582.191406 326.320312 C 1591.457031 337.609375 1600.4375 349.117188 1609.136719 360.847656 C 1617.839844 372.578125 1626.246094 384.515625 1634.359375 396.65625 C 1642.472656 408.800781 1650.28125 421.136719 1657.792969 433.664062 C 1665.300781 446.1875 1672.496094 458.890625 1679.378906 471.773438 C 1686.265625 484.652344 1692.828125 497.695312 1699.074219 510.894531 C 1705.316406 524.097656 1711.234375 537.445312 1716.824219 550.9375 C 1722.410156 564.429688 1727.664062 578.050781 1732.585938 591.804688 C 1737.507812 605.554688 1742.085938 619.417969 1746.324219 633.390625 C 1750.566406 647.367188 1754.460938 661.4375 1758.007812 675.605469 C 1761.554688 689.773438 1764.753906 704.019531 1767.605469 718.339844 C 1770.453125 732.664062 1772.949219 747.050781 1775.09375 761.496094 C 1777.234375 775.941406 1779.023438 790.433594 1780.453125 804.96875 C 1781.886719 819.5 1782.960938 834.0625 1783.675781 848.648438 C 1784.394531 863.234375 1784.75 877.832031 1784.75 892.433594 Z M 1784.75 892.433594 " fill-opacity="1" fill-rule="nonzero"/></g></g></g></g></g><path fill="#ffffff" d="M 1380.519531 896.269531 L 673.238281 1336.464844 C 638.710938 1370.992188 579.253906 1346.535156 579.253906 1297.625 L 577.8125 488.207031 C 577.8125 439.292969 636.792969 414.839844 671.800781 449.363281 L 1380.519531 818.109375 C 1402.097656 840.167969 1402.097656 874.691406 1380.519531 896.269531 Z M 1380.519531 896.269531 " fill-opacity="1" fill-rule="nonzero"/></svg>